<?xml version="1.0" standalone="no"?>
<!DOCTYPE svg PUBLIC "-//W3C//DTD SVG 20010904//EN"
 "http://www.w3.org/TR/2001/REC-SVG-20010904/DTD/svg10.dtd">
<svg version="1.0" xmlns="http://www.w3.org/2000/svg"
 width="384.000000pt" height="384.000000pt" viewBox="0 0 384.000000 384.000000"
 preserveAspectRatio="xMidYMid meet">
<metadata>
Created by potrace 1.11, written by Peter Selinger 2001-2013
</metadata>
<g transform="translate(0.000000,384.000000) scale(0.100000,-0.100000)"
fill="#000000" stroke="none">
<path d="M2043 3827 c-4 -6 -5 -164 -4 -352 l2 -342 -128 1 c-70 0 -146 -3
-168 -6 -22 -4 -58 -10 -80 -13 -70 -11 -207 -55 -294 -96 -70 -33 -194 -108
-211 -128 -3 -3 -22 -21 -43 -38 -33 -29 -90 -91 -138 -150 -47 -58 -132 -227
-143 -284 -2 -13 -9 -43 -14 -67 -15 -62 -12 -193 4 -265 46 -200 190 -440
488 -812 92 -116 126 -154 250 -286 50 -53 140 -148 200 -212 59 -65 116 -117
125 -117 17 0 176 151 281 266 363 399 500 578 656 849 131 227 155 300 149
455 -5 112 -8 131 -41 230 -44 129 -119 245 -233 359 -104 104 -275 217 -290
192 -4 -5 -6 -205 -5 -443 1 -459 -1 -479 -48 -573 -29 -55 -133 -156 -196
-188 -205 -106 -452 -69 -614 93 -83 83 -118 154 -125 255 -9 124 31 234 117
322 107 108 232 158 398 156 70 -1 102 3 103 11 0 6 1 115 1 243 1 206 3 231
17 228 264 -61 324 -73 335 -69 11 4 14 46 14 206 0 110 4 204 9 209 5 5 89
10 188 11 l180 3 2 177 c1 129 -1 177 -10 181 -26 10 -728 4 -734 -6z"/>
<path d="M597 398 c-13 -8 -18 -360 -6 -380 10 -16 2648 -16 2658 0 9 15 7
369 -3 379 -9 10 -2633 11 -2649 1z"/>
</g>
</svg>
